<svg width="54" height="54" viewBox="0 0 54 54" fill="none" xmlns="http://www.w3.org/2000/svg">
<g opacity="0.8">
<path d="M43.9599 9.03665C39.4263 4.50304 33.4049 2 26.9915 2C20.5781 2 14.5568 4.49298 10.0232 9.0266C1.2776 17.7721 0.644304 31.7449 8.43488 41.2142C7.35928 43.4157 6.08263 44.8834 4.65519 45.587C3.78064 46.0193 3.28807 46.9642 3.42881 47.9292C3.57959 48.9043 4.32347 49.6582 5.29855 49.809C5.83132 49.8894 6.4043 49.9397 6.99739 49.9397C9.94273 49.9397 13.0389 48.9244 15.6223 47.1451C19.1004 49.0149 23.0108 50 26.9915 50C33.4049 50 39.4263 47.507 43.9599 42.9734C48.4935 38.4398 50.9865 32.4084 50.9865 26.005C50.9865 19.6017 48.4935 13.5703 43.9599 9.03665ZM42.0399 41.0534C38.019 45.0743 32.6711 47.2859 26.9915 47.2859C23.1917 47.2859 19.4623 46.2706 16.2154 44.3606C16.0043 44.24 15.763 44.1696 15.5318 44.1696C15.2403 44.1696 14.9388 44.2702 14.6975 44.4511C11.6215 46.8335 8.52535 47.1853 7.16828 47.2155C8.78671 46.0092 10.1438 44.1395 11.2797 41.5359C11.4908 41.0534 11.4003 40.4905 11.0485 40.0884C3.60975 31.6846 4.00179 18.8779 11.9432 10.9365C15.9641 6.9156 21.312 4.70408 26.9915 4.70408C32.6812 4.70408 38.019 6.9156 42.0399 10.9365C50.3432 19.2498 50.3432 32.7602 42.0399 41.0534Z" fill="white"/>
<path d="M33.0836 15.0078C30.9123 15.0078 28.8717 15.8522 27.3336 17.3902L26.9919 17.732L26.6501 17.3902C25.1121 15.8522 23.0714 15.0078 20.9001 15.0078C18.7389 15.0078 16.6983 15.8522 15.1703 17.3802C13.6323 18.9182 12.7879 20.9588 12.7979 23.1201C12.7979 25.2914 13.6524 27.3219 15.1803 28.86L26.0268 39.7065C26.2882 39.9678 26.64 40.1085 26.9818 40.1085C27.3236 40.1085 27.6754 39.9779 27.9368 39.7165L38.8134 28.8801C40.3514 27.3421 41.1958 25.3014 41.1958 23.1402C41.1958 20.9689 40.3515 18.9282 38.8235 17.3902C37.2855 15.8522 35.2449 15.0078 33.0836 15.0078ZM36.8934 26.9601L26.9818 36.8315L17.0903 26.94C16.065 25.9146 15.502 24.5576 15.502 23.11C15.502 21.6625 16.065 20.3054 17.0802 19.2901C18.0955 18.2748 19.4526 17.7119 20.9001 17.7119C22.3477 17.7119 23.7047 18.2748 24.7301 19.3002L26.0369 20.607C26.5697 21.1398 27.4241 21.1398 27.9569 20.607L29.2536 19.3102C30.279 18.2849 31.6361 17.7219 33.0836 17.7219C34.5211 17.7219 35.8782 18.2849 36.9035 19.3102C37.9288 20.3356 38.4918 21.6926 38.4817 23.1301C38.4817 24.5777 37.9188 25.9347 36.8934 26.9601Z" fill="white"/>
</g>
</svg>
