<svg width="33" height="44" viewBox="0 0 33 44" fill="none" xmlns="http://www.w3.org/2000/svg">
<path d="M32.8545 34.2024C32.8545 31.9002 31.6163 29.8824 29.7715 28.778C30.1434 27.831 30.3272 26.6998 30.3272 25.3569C30.3272 21.4398 28.571 17.2635 25.3705 13.5359L26.5662 7.55729C27.349 3.64365 24.3537 0 20.3708 0H12.4838C8.49263 0 5.50717 3.65165 6.28835 7.55729L7.48408 13.536C4.28347 17.2635 2.52727 21.4398 2.52727 25.3569C2.52727 26.6998 2.71109 27.831 3.08301 28.778C1.23819 29.8824 0 31.9002 0 34.2024V43.132H32.8545V34.2024ZM10.1091 15.1636H22.7454V19.0388C22.7454 22.5226 19.9111 25.3569 16.4272 25.3569C12.9434 25.3569 10.1091 22.5226 10.1091 19.0388V15.1636ZM12.4837 2.52727H20.3707C22.7655 2.52727 24.5567 4.71824 24.088 7.06161L22.9731 12.6363H17.6909V10.1091H20.2181V7.58181H17.6909V5.05454H15.1636V7.58181H12.6363V10.1091H15.1636V12.6363H9.88137L8.76642 7.06161C8.29677 4.71336 10.094 2.52727 12.4837 2.52727ZM5.05454 25.3569C5.05454 22.8501 5.93655 20.1818 7.58181 17.6158V19.0388C7.58181 23.9161 11.5499 27.8842 16.4272 27.8842C21.3046 27.8842 25.2727 23.9161 25.2727 19.0388V17.6158C26.9179 20.1818 27.8 22.8501 27.8 25.3569C27.8 26.4326 27.6627 27.2862 27.384 27.9427C27.1065 27.9053 26.8239 27.8842 26.5363 27.8842H6.31817C6.03057 27.8842 5.74802 27.9053 5.47053 27.9427C5.19177 27.2862 5.05454 26.4326 5.05454 25.3569ZM14.4275 40.6048L8.10032 34.2073L10.9078 31.3998L14.5654 40.6048H14.4275ZM13.2345 30.4115H19.6199L16.4272 38.4464L13.2345 30.4115ZM18.2891 40.6048L21.9467 31.3998L24.7542 34.2073L18.427 40.6048H18.2891ZM2.52727 34.2024C2.52727 32.1121 4.22787 30.4115 6.31817 30.4115H8.32204L4.53603 34.1975L10.873 40.6048H2.52727V34.2024ZM30.3272 40.6048H21.9815L28.3185 34.1975L24.5324 30.4115H26.5363C28.6266 30.4115 30.3272 32.1121 30.3272 34.2024V40.6048Z" fill="#5D7DEA"/>
</svg>
