<svg width="38" height="38" viewBox="0 0 38 38" fill="none" xmlns="http://www.w3.org/2000/svg">
<path d="M16.8733 15.0613C16.8733 15.3853 16.8733 16.8315 16.8733 16.8315H15.5996V18.9961H16.8733V25.4284H19.4898V18.9962H21.2456C21.2456 18.9962 21.41 17.9583 21.4897 16.8235C21.2612 16.8235 19.4997 16.8235 19.4997 16.8235C19.4997 16.8235 19.4997 15.5642 19.4997 15.3435C19.4997 15.1223 19.785 14.8247 20.0669 14.8247C20.3483 14.8247 20.9423 14.8247 21.4925 14.8247C21.4925 14.53 21.4925 13.5117 21.4925 12.5713C20.758 12.5713 19.9225 12.5713 19.5542 12.5713C16.8086 12.5711 16.8733 14.7379 16.8733 15.0613Z" fill="white"/>
<path opacity="0.2" fill-rule="evenodd" clip-rule="evenodd" d="M18.8135 37C28.7546 37 36.8135 28.9411 36.8135 19C36.8135 9.05887 28.7546 1 18.8135 1C8.87235 1 0.813477 9.05887 0.813477 19C0.813477 28.9411 8.87235 37 18.8135 37Z" stroke="#C5D0E6"/>
</svg>
