<svg width="48" height="48" viewBox="0 0 48 48" fill="none" xmlns="http://www.w3.org/2000/svg">
<g opacity="0.8" clip-path="url(#clip0)">
<path d="M47.5569 21.7648L24.9685 1.56559C24.929 1.5261 24.8895 1.49648 24.8401 1.46686C24.3465 0.992977 23.5567 0.973232 23.0334 1.43724L0.445014 21.6365C-0.107849 22.1301 -0.14734 22.9693 0.336416 23.5222C0.602975 23.8183 0.96826 23.9664 1.33355 23.9664C1.64947 23.9664 1.96539 23.8578 2.22208 23.6308L6.28957 19.9878V20.6986V31.2425V43.5437C6.28957 45.3899 7.7902 46.9004 9.64625 46.9004C9.67586 46.9004 9.69561 46.9004 9.72523 46.9004C9.75484 46.9004 9.77459 46.9004 9.80421 46.9004H16.7742C18.5118 46.9004 19.9236 45.4886 19.9236 43.751V31.7756C19.9236 31.5091 20.1408 31.2919 20.4073 31.2919H27.6044C27.871 31.2919 28.0882 31.5091 28.0882 31.7756V43.751C28.0882 45.4886 29.5 46.9004 31.2375 46.9004H38.3655C40.2413 46.9004 41.7222 45.0542 41.7222 42.6947V31.7164V28.3597V20.1161L45.7897 23.7591C46.0464 23.9862 46.3623 24.0948 46.6782 24.0948C47.0435 24.0948 47.4088 23.9467 47.6754 23.6505C48.1493 23.0976 48.0999 22.2585 47.5569 21.7648ZM39.0467 28.3499V31.7065V42.6749C39.0467 43.6326 38.5729 44.2151 38.3557 44.2151H31.2277C30.9611 44.2151 30.7439 43.9979 30.7439 43.7313V31.7756C30.7439 30.0381 29.3321 28.6263 27.5946 28.6263H20.3975C18.6599 28.6263 17.2481 30.0381 17.2481 31.7756V43.751C17.2481 44.0176 17.0309 44.2348 16.7644 44.2348H9.79433C9.76472 44.2348 9.74497 44.2348 9.71535 44.2348C9.68574 44.2348 9.66599 44.2348 9.63637 44.2348C9.26122 44.2348 8.94529 43.9288 8.94529 43.5437V31.2326V20.6887V17.5986L23.9318 4.21143L39.0467 17.727V28.3499Z" fill="white"/>
</g>
<defs>
<clipPath id="clip0">
<rect width="48" height="48" fill="white"/>
</clipPath>
</defs>
</svg>
