<svg width="38" height="38" viewBox="0 0 38 38" fill="none" xmlns="http://www.w3.org/2000/svg">
<path d="M22.625 11H16.375C13.9625 11 12 12.9625 12 15.375V21.625C12 24.0375 13.9625 26 16.375 26H22.625C25.0375 26 27 24.0375 27 21.625V15.375C27 12.9625 25.0375 11 22.625 11ZM25.75 21.625C25.75 23.3481 24.3481 24.75 22.625 24.75H16.375C14.6519 24.75 13.25 23.3481 13.25 21.625V15.375C13.25 13.6519 14.6519 12.25 16.375 12.25H22.625C24.3481 12.25 25.75 13.6519 25.75 15.375V21.625Z" fill="white"/>
<path d="M19.5 15.0625C17.6047 15.0625 16.0625 16.6047 16.0625 18.5C16.0625 20.3953 17.6047 21.9375 19.5 21.9375C21.3953 21.9375 22.9375 20.3953 22.9375 18.5C22.9375 16.6047 21.3953 15.0625 19.5 15.0625ZM19.5 20.6875C18.2938 20.6875 17.3125 19.7063 17.3125 18.5C17.3125 17.2938 18.2938 16.3125 19.5 16.3125C20.7063 16.3125 21.6875 17.2938 21.6875 18.5C21.6875 19.7063 20.7063 20.6875 19.5 20.6875Z" fill="white"/>
<path d="M23.5625 13.5C23.0456 13.5 22.625 13.9206 22.625 14.4375C22.625 14.9544 23.0456 15.375 23.5625 15.375C24.0794 15.375 24.5 14.9544 24.5 14.4375C24.5 13.9206 24.0794 13.5 23.5625 13.5Z" fill="white"/>
<path opacity="0.2" fill-rule="evenodd" clip-rule="evenodd" d="M18.6807 37C28.6218 37 36.6807 28.9411 36.6807 19C36.6807 9.05887 28.6218 1 18.6807 1C8.73954 1 0.680664 9.05887 0.680664 19C0.680664 28.9411 8.73954 37 18.6807 37Z" stroke="#C5D0E6"/>
</svg>
