<svg width="20" height="20" viewBox="0 0 20 20" fill="none" xmlns="http://www.w3.org/2000/svg">
<g clip-path="url(#clip0)">
<path d="M17.5585 2.38965H2.44569C1.09663 2.38965 0 3.48628 0 4.83533V15.1643C0 16.5134 1.09663 17.61 2.44569 17.61H17.5543C18.9034 17.61 20 16.5134 20 15.1643V4.83947C20.0041 3.49041 18.9075 2.38965 17.5585 2.38965ZM18.8868 15.1643C18.8868 15.8968 18.2909 16.4927 17.5585 16.4927H2.44569C1.71322 16.4927 1.11732 15.8968 1.11732 15.1643V4.83947C1.11732 4.10701 1.71322 3.51111 2.44569 3.51111H17.5543C18.2868 3.51111 18.8827 4.10701 18.8827 4.83947V15.1643H18.8868Z" fill="#5D7DEA"/>
<path d="M12.6137 9.87194L17.5051 5.48543C17.7327 5.27851 17.7534 4.92677 17.5465 4.69503C17.3396 4.46742 16.9878 4.44673 16.7561 4.65364L10.0108 10.7079L8.69486 9.5326C8.69072 9.52846 8.68658 9.52433 8.68658 9.52019C8.65761 9.49122 8.62864 9.46639 8.59554 9.44156L3.24069 4.64951C3.00895 4.4426 2.6572 4.46329 2.45029 4.69503C2.24338 4.92677 2.26407 5.27851 2.49581 5.48543L7.44511 9.90918L2.5165 14.5233C2.29303 14.7343 2.28062 15.0861 2.49167 15.3137C2.6034 15.4296 2.75238 15.4916 2.90135 15.4916C3.03791 15.4916 3.17448 15.442 3.28207 15.3427L8.28517 10.6623L9.64251 11.8748C9.7501 11.97 9.88252 12.0155 10.0149 12.0155C10.1474 12.0155 10.2839 11.9659 10.3874 11.8707L11.782 10.621L16.7561 15.3468C16.8637 15.4503 17.0044 15.4999 17.141 15.4999C17.2899 15.4999 17.4348 15.442 17.5465 15.3261C17.7575 15.1026 17.7493 14.7468 17.5258 14.5357L12.6137 9.87194Z" fill="#5D7DEA"/>
</g>
<defs>
<clipPath id="clip0">
<rect width="20" height="20" fill="white"/>
</clipPath>
</defs>
</svg>
