<svg width="20" height="20" viewBox="0 0 20 20" fill="none" xmlns="http://www.w3.org/2000/svg">
<path d="M9.99626 0C5.57697 0 1.97949 3.59748 1.97949 8.01677C1.97949 8.51992 2.02561 9.02725 2.12205 9.52201C2.12624 9.55136 2.14301 9.63941 2.17656 9.79036C2.29815 10.3312 2.47844 10.8637 2.71324 11.3711C3.57697 13.4046 5.47634 16.5283 9.64405 19.8742C9.74888 19.9581 9.87466 20 10.0004 20C10.1262 20 10.252 19.9581 10.3568 19.8742C14.5204 16.5283 16.4239 13.4046 17.2877 11.3711C17.5225 10.8637 17.7027 10.3354 17.8243 9.79036C17.8579 9.63941 17.8747 9.55136 17.8788 9.52201C17.9711 9.02725 18.0214 8.51992 18.0214 8.01677C18.013 3.59748 14.4155 0 9.99626 0ZM16.7552 9.32495C16.7552 9.33333 16.751 9.34172 16.751 9.3501C16.7468 9.37107 16.7342 9.43396 16.7132 9.5304C16.7132 9.53459 16.7132 9.53459 16.7132 9.53878C16.6084 10.0084 16.4533 10.4654 16.2478 10.9057C16.2436 10.9099 16.2436 10.9182 16.2394 10.9224C15.4554 12.7799 13.7363 15.6143 9.99626 18.7044C6.25622 15.6143 4.53714 12.7799 3.75308 10.9224C3.74888 10.9182 3.74888 10.9099 3.74469 10.9057C3.54343 10.4696 3.3883 10.0084 3.27928 9.53878C3.27928 9.53459 3.27928 9.53459 3.27928 9.5304C3.25412 9.43396 3.24574 9.37107 3.24155 9.3501C3.24155 9.34172 3.23735 9.33333 3.23735 9.32075C3.1535 8.88889 3.11157 8.45283 3.11157 8.01258C3.11157 4.21803 6.20171 1.12788 9.99626 1.12788C13.7908 1.12788 16.8809 4.21803 16.8809 8.01258C16.8809 8.45702 16.839 8.89727 16.7552 9.32495Z" fill="#5D7DEA"/>
<path d="M9.99542 3.01465C7.19039 3.01465 4.90527 5.29976 4.90527 8.10479C4.90527 10.9098 7.19039 13.1949 9.99542 13.1949C12.8005 13.1949 15.0856 10.9098 15.0856 8.10479C15.0856 5.29976 12.8005 3.01465 9.99542 3.01465ZM9.99542 12.0629C7.81093 12.0629 6.03735 10.2851 6.03735 8.10479C6.03735 5.9245 7.81513 4.14672 9.99542 4.14672C12.1757 4.14672 13.9535 5.9245 13.9535 8.10479C13.9535 10.2851 12.1799 12.0629 9.99542 12.0629Z" fill="#5D7DEA"/>
</svg>
