<svg width="48" height="48" viewBox="0 0 48 48" fill="none" xmlns="http://www.w3.org/2000/svg">
<g opacity="0.8">
<path d="M23.9893 0C13.383 0 4.74902 8.63396 4.74902 19.2403C4.74902 20.4478 4.85972 21.6654 5.09116 22.8528C5.10122 22.9233 5.14148 23.1346 5.22198 23.4969C5.5138 24.795 5.94651 26.073 6.51003 27.2906C8.58299 32.1711 13.1415 39.6679 23.144 47.6981C23.3956 47.8994 23.6975 48 23.9993 48C24.3012 48 24.6031 47.8994 24.8547 47.6981C34.8471 39.6679 39.4157 32.1711 41.4886 27.2906C42.0522 26.073 42.4849 24.805 42.7767 23.4969C42.8572 23.1346 42.8974 22.9233 42.9075 22.8528C43.1289 21.6654 43.2496 20.4478 43.2496 19.2403C43.2295 8.63396 34.5956 0 23.9893 0ZM40.2107 22.3799C40.2107 22.4 40.2006 22.4201 40.2006 22.4403C40.1905 22.4906 40.1603 22.6415 40.11 22.873C40.11 22.883 40.11 22.883 40.11 22.8931C39.8585 24.0201 39.4861 25.117 38.993 26.1736C38.983 26.1836 38.983 26.2038 38.9729 26.2138C37.0912 30.6717 32.9654 37.4742 23.9893 44.8906C15.0132 37.4742 10.8874 30.6717 9.00563 26.2138C8.99556 26.2038 8.99556 26.1836 8.9855 26.1736C8.50248 25.127 8.13016 24.0201 7.86852 22.8931C7.86852 22.883 7.86852 22.883 7.86852 22.873C7.80814 22.6415 7.78802 22.4906 7.77795 22.4403C7.77795 22.4201 7.76789 22.4 7.76789 22.3698C7.56663 21.3333 7.466 20.2868 7.466 19.2302C7.466 10.1233 14.8824 2.70692 23.9893 2.70692C33.0962 2.70692 40.5125 10.1233 40.5125 19.2302C40.5125 20.2969 40.4119 21.3535 40.2107 22.3799Z" fill="white"/>
<path d="M23.9898 7.23535C17.2577 7.23535 11.7734 12.7196 11.7734 19.4517C11.7734 26.1838 17.2577 31.6681 23.9898 31.6681C30.7219 31.6681 36.2061 26.1838 36.2061 19.4517C36.2061 12.7196 30.7219 7.23535 23.9898 7.23535ZM23.9898 28.9511C18.747 28.9511 14.4904 24.6844 14.4904 19.4517C14.4904 14.219 18.7571 9.95233 23.9898 9.95233C29.2225 9.95233 33.4892 14.219 33.4892 19.4517C33.4892 24.6844 29.2326 28.9511 23.9898 28.9511Z" fill="white"/>
</g>
</svg>
