<svg width="38" height="38" viewBox="0 0 38 38" fill="none" xmlns="http://www.w3.org/2000/svg">
<path fill-rule="evenodd" clip-rule="evenodd" d="M14.6652 20.7911L11.7027 19.7165C11.4018 19.6069 11.3992 19.1941 11.6992 19.0816L23.8576 14.5233C24.1153 14.4265 24.3813 14.6459 24.3252 14.909L22.1433 25.1088C22.0918 25.3497 21.8013 25.4589 21.5962 25.314L18.6177 23.2124C18.4368 23.0848 18.1903 23.0917 18.0172 23.2287L16.3658 24.537C16.1741 24.6894 15.8853 24.6045 15.8119 24.375L14.6652 20.7911ZM21.417 16.7536L15.6271 20.2192C15.4052 20.3523 15.3007 20.6128 15.3724 20.8566L15.9984 22.9943C16.0428 23.1458 16.2691 23.1303 16.2906 22.9737L16.4534 21.8015C16.4841 21.5807 16.5924 21.3774 16.7604 21.2255L21.5388 16.9088C21.6281 16.8283 21.5211 16.6915 21.417 16.7536Z" fill="white"/>
<path opacity="0.2" fill-rule="evenodd" clip-rule="evenodd" d="M18.5469 37C28.488 37 36.5469 28.9411 36.5469 19C36.5469 9.05887 28.488 1 18.5469 1C8.60575 1 0.546875 9.05887 0.546875 19C0.546875 28.9411 8.60575 37 18.5469 37Z" stroke="#C5D0E6"/>
</svg>
